<svg xmlns="http://www.w3.org/2000/svg" viewBox="0 0 400 500" width="400" height="500">
  <defs>
    <linearGradient id="bg2a" x1="0%" y1="0%" x2="100%" y2="100%">
      <stop offset="0%" style="stop-color:#22c55e;stop-opacity:0.3" />
      <stop offset="100%" style="stop-color:#16a34a;stop-opacity:0.3" />
    </linearGradient>
  </defs>
  <rect width="400" height="500" fill="url(#bg2a)"/>

  <!-- Person silhouette - after (muscular) -->
  <ellipse cx="200" cy="180" rx="40" ry="45" fill="#22c55e"/>

  <!-- Muscular torso -->
  <path d="M 155 220 L 150 260 Q 150 290 165 310 L 200 318 L 235 310 Q 250 290 250 260 L 245 220 Q 225 210 200 210 Q 175 210 155 220 Z" fill="#22c55e"/>

  <!-- Muscular arms -->
  <ellipse cx="145" cy="250" rx="18" ry="30" fill="#22c55e" transform="rotate(-10 145 250)"/>
  <ellipse cx="255" cy="250" rx="18" ry="30" fill="#22c55e" transform="rotate(10 255 250)"/>
  <rect x="140" y="275" width="20" height="70" rx="10" fill="#22c55e"/>
  <rect x="240" y="275" width="20" height="70" rx="10" fill="#22c55e"/>

  <!-- Legs -->
  <ellipse cx="180" cy="330" rx="20" ry="35" fill="#22c55e"/>
  <ellipse cx="220" cy="330" rx="20" ry="35" fill="#22c55e"/>
  <rect x="170" y="360" width="22" height="100" rx="11" fill="#22c55e"/>
  <rect x="208" y="360" width="22" height="100" rx="11" fill="#22c55e"/>

  <!-- Muscle definition -->
  <line x1="185" y1="235" x2="185" y2="270" stroke="#16a34a" stroke-width="3"/>
  <line x1="200" y1="235" x2="200" y2="270" stroke="#16a34a" stroke-width="3"/>
  <line x1="215" y1="235" x2="215" y2="270" stroke="#16a34a" stroke-width="3"/>

  <!-- Label -->
  <rect x="20" y="430" width="360" height="50" rx="8" fill="#000" opacity="0.5"/>
  <text x="200" y="462" font-family="Arial" font-size="24" fill="#fff" text-anchor="middle" font-weight="bold">AFTER +۶ کیلو عضله</text>
</svg>
