<svg xmlns="http://www.w3.org/2000/svg" viewBox="0 0 400 500" width="400" height="500">
  <defs>
    <linearGradient id="bg3a" x1="0%" y1="0%" x2="100%" y2="100%">
      <stop offset="0%" style="stop-color:#22c55e;stop-opacity:0.3" />
      <stop offset="100%" style="stop-color:#16a34a;stop-opacity:0.3" />
    </linearGradient>
  </defs>
  <rect width="400" height="500" fill="url(#bg3a)"/>

  <!-- Person silhouette - after (athletic) -->
  <ellipse cx="200" cy="180" rx="38" ry="42" fill="#22c55e"/>

  <!-- Athletic torso -->
  <path d="M 160 215 Q 160 220 165 240 L 165 280 Q 165 305 180 315 L 200 320 L 220 315 Q 235 305 235 280 L 235 240 Q 240 220 240 215 Q 220 205 200 205 Q 180 205 160 215 Z" fill="#22c55e"/>

  <!-- Arms -->
  <rect x="148" y="240" width="20" height="105" rx="10" fill="#22c55e"/>
  <rect x="232" y="240" width="20" height="105" rx="10" fill="#22c55e"/>

  <!-- Legs -->
  <ellipse cx="180" cy="328" rx="19" ry="28" fill="#22c55e"/>
  <ellipse cx="220" cy="328" rx="19" ry="28" fill="#22c55e"/>
  <rect x="170" y="350" width="21" height="110" rx="10" fill="#22c55e"/>
  <rect x="209" y="350" width="21" height="110" rx="10" fill="#22c55e"/>

  <!-- Ab definition -->
  <ellipse cx="200" cy="250" rx="15" ry="12" fill="#16a34a" opacity="0.3"/>
  <ellipse cx="200" cy="270" rx="15" ry="12" fill="#16a34a" opacity="0.3"/>
  <ellipse cx="200" cy="290" rx="14" ry="11" fill="#16a34a" opacity="0.3"/>

  <!-- Label -->
  <rect x="20" y="430" width="360" height="50" rx="8" fill="#000" opacity="0.5"/>
  <text x="200" y="462" font-family="Arial" font-size="22" fill="#fff" text-anchor="middle" font-weight="bold">AFTER - تحول ۶ ماهه</text>
</svg>
