<svg xmlns="http://www.w3.org/2000/svg" viewBox="0 0 400 500" width="400" height="500">
  <defs>
    <linearGradient id="bg1a" x1="0%" y1="0%" x2="100%" y2="100%">
      <stop offset="0%" style="stop-color:#22c55e;stop-opacity:0.3" />
      <stop offset="100%" style="stop-color:#16a34a;stop-opacity:0.3" />
    </linearGradient>
  </defs>
  <rect width="400" height="500" fill="url(#bg1a)"/>

  <!-- Person silhouette - after (fit) -->
  <ellipse cx="200" cy="180" rx="40" ry="45" fill="#22c55e"/>
  <path d="M 160 225 L 160 280 Q 160 310 175 320 L 200 325 L 225 320 Q 240 310 240 280 L 240 225 Q 220 215 200 215 Q 180 215 160 225 Z" fill="#22c55e"/>
  <rect x="150" y="250" width="22" height="100" rx="11" fill="#22c55e"/>
  <rect x="228" y="250" width="22" height="100" rx="11" fill="#22c55e"/>
  <rect x="175" y="320" width="20" height="140" rx="10" fill="#22c55e"/>
  <rect x="205" y="320" width="20" height="140" rx="10" fill="#22c55e"/>

  <!-- Muscle definition lines -->
  <line x1="185" y1="240" x2="185" y2="270" stroke="#16a34a" stroke-width="2"/>
  <line x1="215" y1="240" x2="215" y2="270" stroke="#16a34a" stroke-width="2"/>

  <!-- Label -->
  <rect x="20" y="430" width="360" height="50" rx="8" fill="#000" opacity="0.5"/>
  <text x="200" y="462" font-family="Arial" font-size="24" fill="#fff" text-anchor="middle" font-weight="bold">AFTER - کاهش ۸ کیلو</text>
</svg>
