<svg xmlns="http://www.w3.org/2000/svg" viewBox="0 0 400 500" width="400" height="500">
  <defs>
    <linearGradient id="bg4a" x1="0%" y1="0%" x2="100%" y2="100%">
      <stop offset="0%" style="stop-color:#22c55e;stop-opacity:0.3" />
      <stop offset="100%" style="stop-color:#16a34a;stop-opacity:0.3" />
    </linearGradient>
  </defs>
  <rect width="400" height="500" fill="url(#bg4a)"/>

  <!-- Person silhouette - after (defined/toned) -->
  <ellipse cx="200" cy="180" rx="38" ry="43" fill="#22c55e"/>

  <!-- Defined torso with V-taper -->
  <path d="M 165 215 L 160 245 Q 158 270 170 295 L 200 308 L 230 295 Q 242 270 240 245 L 235 215 Q 218 205 200 205 Q 182 205 165 215 Z" fill="#22c55e"/>

  <!-- Defined arms -->
  <ellipse cx="150" cy="250" rx="16" ry="26" fill="#22c55e" transform="rotate(-8 150 250)"/>
  <ellipse cx="250" cy="250" rx="16" ry="26" fill="#22c55e" transform="rotate(8 250 250)"/>
  <rect x="145" y="272" width="18" height="68" rx="9" fill="#22c55e"/>
  <rect x="237" y="272" width="18" height="68" rx="9" fill="#22c55e"/>

  <!-- Defined legs -->
  <ellipse cx="182" cy="318" rx="18" ry="26" fill="#22c55e"/>
  <ellipse cx="218" cy="318" rx="18" ry="26" fill="#22c55e"/>
  <rect x="172" y="340" width="21" height="120" rx="10" fill="#22c55e"/>
  <rect x="207" y="340" width="21" height="120" rx="10" fill="#22c55e"/>

  <!-- Muscle striations -->
  <line x1="188" y1="240" x2="188" y2="275" stroke="#16a34a" stroke-width="2"/>
  <line x1="200" y1="238" x2="200" y2="278" stroke="#16a34a" stroke-width="2"/>
  <line x1="212" y1="240" x2="212" y2="275" stroke="#16a34a" stroke-width="2"/>
  <circle cx="190" cy="260" r="8" fill="#16a34a" opacity="0.2"/>
  <circle cx="210" cy="260" r="8" fill="#16a34a" opacity="0.2"/>

  <!-- Label -->
  <rect x="20" y="430" width="360" height="50" rx="8" fill="#000" opacity="0.5"/>
  <text x="200" y="462" font-family="Arial" font-size="20" fill="#fff" text-anchor="middle" font-weight="bold">AFTER - فرم‌دهی عضلات</text>
</svg>
