<svg xmlns="http://www.w3.org/2000/svg" viewBox="0 0 64 64" width="64" height="64">
  <defs>
    <linearGradient id="nutGrad" x1="0%" y1="0%" x2="100%" y2="100%">
      <stop offset="0%" style="stop-color:#22c55e;stop-opacity:1" />
      <stop offset="100%" style="stop-color:#16a34a;stop-opacity:1" />
    </linearGradient>
  </defs>
  <!-- Apple body -->
  <path d="M 32 16 Q 20 16 16 28 Q 14 36 16 44 Q 18 52 26 56 Q 32 58 38 56 Q 46 52 48 44 Q 50 36 48 28 Q 44 16 32 16 Z"
        fill="url(#nutGrad)"/>

  <!-- Highlight -->
  <ellipse cx="26" cy="26" rx="6" ry="8" fill="#fff" opacity="0.3"/>

  <!-- Stem -->
  <path d="M 32 16 Q 32 12 34 10" stroke="#16a34a" stroke-width="2" fill="none" stroke-linecap="round"/>

  <!-- Leaf -->
  <path d="M 34 10 Q 40 8 42 12 Q 40 14 36 14 Q 34 12 34 10 Z" fill="#22c55e"/>

  <!-- Nutritional elements -->
  <circle cx="32" cy="35" r="2" fill="#fff" opacity="0.4"/>
  <circle cx="26" cy="40" r="1.5" fill="#fff" opacity="0.4"/>
  <circle cx="38" cy="38" r="1.5" fill="#fff" opacity="0.4"/>
</svg>
