<svg xmlns="http://www.w3.org/2000/svg" viewBox="0 0 64 64" width="64" height="64">
  <defs>
    <linearGradient id="phoneGrad" x1="0%" y1="0%" x2="100%" y2="100%">
      <stop offset="0%" style="stop-color:#22c55e;stop-opacity:1" />
      <stop offset="100%" style="stop-color:#16a34a;stop-opacity:1" />
    </linearGradient>
  </defs>
  <!-- Circle background -->
  <circle cx="32" cy="32" r="28" fill="url(#phoneGrad)"/>

  <!-- Phone handset -->
  <path d="M 24 20 Q 22 20 22 22 L 22 26 Q 22 28 24 28 L 26 28 Q 26 32 28 36 Q 32 42 38 44 L 38 46 Q 38 48 40 48 L 44 48 Q 46 48 46 46 L 46 42 Q 46 40 44 40 L 40 40 Q 38 38 36 34 Q 34 30 34 28 L 34 24 Q 34 22 32 22 L 24 20 Z"
        fill="#fff"/>

  <!-- Connection waves -->
  <path d="M 36 18 Q 40 18 42 20" stroke="#fff" stroke-width="2" fill="none" stroke-linecap="round" opacity="0.7"/>
  <path d="M 38 14 Q 44 14 48 18" stroke="#fff" stroke-width="2" fill="none" stroke-linecap="round" opacity="0.5"/>
</svg>
