<svg xmlns="http://www.w3.org/2000/svg" viewBox="0 0 64 64" width="64" height="64">
  <defs>
    <linearGradient id="waGrad" x1="0%" y1="0%" x2="100%" y2="100%">
      <stop offset="0%" style="stop-color:#25D366;stop-opacity:1" />
      <stop offset="100%" style="stop-color:#128C7E;stop-opacity:1" />
    </linearGradient>
  </defs>
  <!-- Circle background -->
  <circle cx="32" cy="32" r="28" fill="url(#waGrad)"/>

  <!-- Phone icon -->
  <path d="M 22 42 L 18 52 L 28 48 Q 30 48 32 48 Q 42 48 46 42 Q 50 36 50 28 Q 50 20 46 16 Q 42 12 32 12 Q 22 12 18 16 Q 14 20 14 28 Q 14 34 16 38 L 14 44 L 20 42"
        fill="none" stroke="#fff" stroke-width="2.5"/>

  <!-- Chat bubble with checkmark -->
  <path d="M 26 26 Q 24 28 24 30 Q 24 34 28 36 L 32 38 L 36 36 Q 40 34 40 30 Q 40 28 38 26"
        fill="none" stroke="#fff" stroke-width="2" stroke-linecap="round" stroke-linejoin="round"/>
</svg>
